<svg version="1.0" xmlns="http://www.w3.org/2000/svg"
 width="518.000000pt" height="738.000000pt" viewBox="0 0 518.000000 738.000000"
 preserveAspectRatio="xMidYMid meet">

<g transform="translate(0.000000,738.000000) scale(0.100000,-0.100000)"
fill="#000000" stroke="none">
<path d="M4170 7254 c-107 -13 -180 -26 -222 -40 -112 -37 -209 -177 -228
-329 -6 -44 -15 -438 -20 -875 -12 -1002 -16 -1100 -49 -1100 -9 0 -80 41
-156 91 -235 153 -409 225 -652 271 -105 20 -150 22 -413 23 -237 0 -318 -4
-410 -18 -456 -72 -795 -243 -1115 -562 -207 -207 -345 -396 -463 -636 -119
-241 -194 -480 -252 -794 -84 -462 -79 -847 16 -1275 98 -438 245 -765 469
-1045 344 -430 715 -664 1250 -789 218 -51 298 -60 515 -60 227 -1 293 8 514
69 349 96 527 202 826 491 153 148 214 195 230 177 5 -4 57 -93 116 -198 125
-222 193 -325 237 -358 95 -72 218 -110 357 -110 112 0 186 19 256 65 65 44
82 78 94 184 23 200 40 5503 20 6103 -14 415 -33 538 -90 591 -16 15 -64 40
-107 57 -136 54 -205 64 -458 68 -126 2 -246 1 -265 -1z m-1337 -3290 c323
-62 536 -236 707 -579 117 -234 150 -394 150 -722 0 -288 -21 -392 -120 -599
-150 -311 -416 -527 -735 -595 -177 -37 -437 -19 -600 42 -78 29 -192 106
-280 190 -189 180 -293 379 -357 686 -19 92 -22 139 -22 318 0 180 3 226 22
320 120 577 459 918 947 954 113 8 189 4 288 -15z"/>
</g>
</svg>
