<svg version="1.0" xmlns="http://www.w3.org/2000/svg"
 width="845.000000pt" height="295.000000pt" viewBox="0 0 845.000000 295.000000"
 preserveAspectRatio="xMidYMid meet">

<g transform="translate(0.000000,295.000000) scale(0.100000,-0.100000)"
fill="#000000" stroke="none">
<path d="M6589 2880 c-194 -18 -391 -100 -500 -209 -149 -149 -197 -269 -227
-571 l-7 -75 -106 -5 c-174 -9 -189 -30 -189 -255 0 -223 17 -246 179 -253 53
-2 101 -8 106 -14 6 -6 10 -228 10 -626 0 -585 1 -619 19 -655 33 -66 76 -81
241 -81 154 -1 198 11 238 65 31 42 36 139 37 733 0 308 3 563 6 567 3 5 200
9 439 9 387 0 434 -2 439 -16 3 -9 6 -172 6 -362 0 -376 9 -475 54 -595 38
-102 60 -139 130 -213 115 -125 258 -182 477 -191 192 -8 330 21 400 84 23 21
41 47 44 66 8 43 -32 272 -56 323 -29 61 -59 70 -159 50 -44 -9 -98 -16 -120
-16 -61 0 -145 36 -178 76 -54 65 -57 90 -58 439 0 176 1 327 4 337 3 14 28
17 205 20 291 4 311 18 323 219 7 116 -6 211 -33 242 -39 44 -77 51 -286 52
-108 1 -199 4 -201 6 -3 2 -6 135 -9 294 -3 270 -5 293 -25 338 -17 39 -29 51
-68 68 -42 19 -62 21 -189 17 -131 -3 -144 -5 -178 -28 -66 -45 -70 -68 -75
-393 -4 -284 -4 -288 -26 -296 -32 -12 -845 -6 -857 6 -15 15 6 155 30 201 25
49 56 76 116 103 42 19 74 23 210 28 178 7 200 14 231 73 24 46 40 246 25 313
-19 84 -57 110 -187 125 -97 11 -109 11 -235 0z"/>
<path d="M1575 2760 c-90 -9 -117 -22 -146 -74 -24 -41 -24 -42 -27 -423 -2
-256 -7 -383 -13 -383 -6 0 -36 18 -68 40 -112 78 -225 110 -396 110 -279 0
-478 -93 -647 -304 -95 -117 -151 -247 -189 -430 -44 -221 -33 -414 37 -625
42 -127 78 -193 160 -291 128 -154 268 -237 474 -279 132 -28 225 -27 344 4
141 35 224 83 324 184 65 66 86 82 93 71 4 -8 32 -58 62 -110 45 -81 60 -98
97 -117 78 -40 191 -27 227 25 17 26 18 87 20 1242 3 1386 8 1296 -77 1337
-51 24 -163 34 -275 23z m-445 -1247 c96 -35 152 -86 209 -193 44 -83 61 -159
61 -277 0 -78 -5 -119 -20 -164 -79 -234 -287 -345 -516 -275 -71 22 -164 108
-203 189 -104 214 -63 502 90 648 93 89 248 118 379 72z"/>
<path d="M3330 2019 c-252 -5 -280 -8 -337 -28 -102 -37 -186 -103 -264 -206
-23 -30 -45 -55 -49 -55 -5 0 -39 54 -76 121 -37 66 -78 128 -92 137 -17 11
-46 16 -94 16 -60 -1 -73 -4 -95 -26 -13 -14 -28 -42 -33 -64 -12 -49 -12
-1509 -1 -1623 9 -87 23 -117 74 -155 22 -17 46 -20 139 -23 190 -5 244 10
295 86 23 34 23 34 23 445 0 488 6 563 55 662 42 86 73 119 145 153 51 24 67
26 221 29 l166 4 13 41 c40 137 204 378 306 450 24 16 41 34 38 39 -3 5 -40 8
-82 6 -43 -2 -201 -6 -352 -9z"/>
<path d="M4165 2000 c-111 -29 -154 -47 -235 -98 -140 -87 -257 -226 -333
-397 -42 -96 -62 -169 -76 -290 -43 -358 48 -663 260 -875 157 -157 314 -227
534 -237 235 -11 393 45 540 192 46 47 86 85 88 85 3 0 15 -17 28 -37 119
-203 137 -217 255 -211 90 4 118 25 134 102 7 35 10 318 8 867 -3 759 -4 817
-21 842 -34 52 -56 59 -189 59 -165 1 -192 -11 -236 -111 -18 -39 -34 -71 -36
-71 -3 0 -30 22 -60 49 -73 63 -157 107 -252 131 -105 27 -309 27 -409 0z
m404 -509 c146 -45 237 -171 262 -360 23 -172 -27 -330 -137 -430 -72 -66
-115 -88 -199 -101 -97 -15 -178 1 -252 52 -90 61 -138 130 -173 246 -19 61
-21 89 -17 180 2 59 12 130 21 158 23 73 90 169 144 206 96 66 234 85 351 49z"/>
</g>
</svg>
